{"accessors" : [{"bufferView" : 0, "byteOffset" : 0, "componentType" : 5125, "count" : 89568, "type" : "SCALAR", "max" : [89567], "min" : [0]}, {"bufferView" : 1, "byteOffset" : 0, "componentType" : 5126, "count" : 89568, "type" : "VEC3", "max" : [2.3579890727996826, 4.843161106109619, 2.192188024520874], "min" : [-2.1585490703582764, 0, -2.324557065963745]}, {"bufferView" : 1, "byteOffset" : 12, "componentType" : 5126, "count" : 89568, "type" : "VEC3", "max" : [0.9999697208404541, 0.9996842741966248, 0.9991499781608582], "min" : [-0.9999653100967407, -1.0000044107437134, -0.9997782707214355]}], "asset" : {"generator" : "Aspose.3D 20.11", "version" : "2.0"}, "buffers" : [{"uri" : "buffer.bin", "byteLength" : 2507912}], "bufferViews" : [{"buffer" : 0, "byteOffset" : 0, "byteLength" : 358272, "target" : 34963}, {"buffer" : 0, "byteOffset" : 358276, "byteLength" : 2149632, "byteStride" : 24, "target" : 34962}], "meshes" : [{"primitives" : [{"attributes" : {"POSITION" : 1, "NORMAL" : 2}, "indices" : 0, "mode" : 4}]}], "nodes" : [{"mesh" : 0, "name" : "Mushroom_Cylinder.001"}], "scene" : 0, "scenes" : [{"nodes" : [0]}]}